<?xml version="1.0" encoding="UTF-8"?>
<svg version="1.1" xmlns="http://www.w3.org/2000/svg" width="64" height="64">
<path d="M0 0 C0.70157227 0.00016113 1.40314453 0.00032227 2.12597656 0.00048828 C9.03656252 0.15140912 14.35409943 2.25517175 20.375 5.53125 C22.72993167 6.59096925 23.86684275 6.22612759 26.25 5.375 C27.25 8.375 27.25 8.375 26.5625 10.1875 C26.06297523 13.68417336 28.28492763 15.56775376 30.25 18.375 C33.64249912 26.63603295 33.72925621 37.51720502 30.625 45.9375 C26.51372409 54.50505399 20.25657305 59.95709983 11.484375 63.48828125 C7.78440992 64.50264366 4.30942348 64.75820603 0.5 64.75 C-0.20157227 64.74983887 -0.90314453 64.74967773 -1.62597656 64.74951172 C-8.53656252 64.59859088 -13.85409943 62.49482825 -19.875 59.21875 C-22.22993167 58.15903075 -23.36684275 58.52387241 -25.75 59.375 C-26.75 56.375 -26.75 56.375 -26.0625 54.5625 C-25.56297523 51.06582664 -27.78492763 49.18224624 -29.75 46.375 C-33.14249912 38.11396705 -33.22925621 27.23279498 -30.125 18.8125 C-26.01372409 10.24494601 -19.75657305 4.79290017 -10.984375 1.26171875 C-7.28440992 0.24735634 -3.80942348 -0.00820603 0 0 Z " fill="#F7D987" transform="translate(31.75,-0.375)"/>
<path d="M0 0 C0.70084717 0.00088623 1.40169434 0.00177246 2.1237793 0.00268555 C8.73164476 0.15243241 14.87892365 1.48230256 20.01171875 5.88671875 C21.25 7.375 21.25 7.375 21.25 9.375 C19.0625 11.125 19.0625 11.125 16.25 12.375 C13.875 11.6875 13.875 11.6875 11.25 10.375 C3.46832101 7.62852506 -3.47722305 6.98955189 -11.0625 10.5 C-16.9195389 13.76819099 -20.77194113 17.87524223 -23.24609375 24.265625 C-25.15161085 32.24220821 -23.9064507 39.93479477 -20.75 47.375 C-16.77329276 43.77702679 -13.97391095 39.54293595 -11 35.125 C-10.49339844 34.37992188 -9.98679687 33.63484375 -9.46484375 32.8671875 C-8.22265244 31.03905689 -6.98452418 29.208313 -5.75 27.375 C-4.76 27.705 -3.77 28.035 -2.75 28.375 C-2.75 30.355 -2.75 32.335 -2.75 34.375 C-1.986875 34.519375 -1.22375 34.66375 -0.4375 34.8125 C2.25 35.375 2.25 35.375 5.25 36.375 C4.07534193 39.89897422 3.29235694 40.27925832 0.25 42.22265625 C-0.554375 42.74537109 -1.35875 43.26808594 -2.1875 43.80664062 C-3.033125 44.34482422 -3.87875 44.88300781 -4.75 45.4375 C-6.41934115 46.50755786 -8.08614686 47.58158478 -9.75 48.66015625 C-10.86375 49.36990601 -10.86375 49.36990601 -12 50.09399414 C-13.88907094 51.27182991 -13.88907094 51.27182991 -14.75 53.375 C-5.90624554 56.96376993 2.1652622 57.79120964 11.21484375 54.34375 C17.68544973 51.26369188 20.64676508 46.75626304 23.25 40.375 C24.96679462 35.22461614 25.39704564 29.13812613 23.28515625 24.05078125 C22.53613715 22.72675759 21.77887983 21.40734512 21.01171875 20.09375 C20.25 18.375 20.25 18.375 20.9375 15.5 C21.370625 14.79875 21.80375 14.0975 22.25 13.375 C22.58 12.715 22.91 12.055 23.25 11.375 C26.65844088 12.75409662 27.91737535 13.98063494 29.4375 17.3125 C29.92283203 18.34697266 29.92283203 18.34697266 30.41796875 19.40234375 C33.70623972 27.19847914 33.58053093 37.99067824 30.625 45.9375 C26.51372409 54.50505399 20.25657305 59.95709983 11.484375 63.48828125 C7.78440992 64.50264366 4.30942348 64.75820603 0.5 64.75 C-0.20157227 64.74983887 -0.90314453 64.74967773 -1.62597656 64.74951172 C-8.53656252 64.59859088 -13.85409943 62.49482825 -19.875 59.21875 C-22.22993167 58.15903075 -23.36684275 58.52387241 -25.75 59.375 C-26.75 56.375 -26.75 56.375 -26.0625 54.5625 C-25.56297523 51.06582664 -27.78492763 49.18224624 -29.75 46.375 C-33.14249912 38.11396705 -33.22925621 27.23279498 -30.125 18.8125 C-26.01372409 10.24494601 -19.75657305 4.79290017 -10.984375 1.26171875 C-7.28452564 0.24738807 -3.80937392 -0.00866285 0 0 Z " fill="#0B6787" transform="translate(31.75,-0.375)"/>
<path d="M0 0 C3.85980854 3.47382769 5.66172457 6.40393273 6.3359375 11.578125 C6.45496778 19.71979644 4.59017446 25.74955158 -0.25 32.3125 C-6.51356233 38.43370864 -13.74010646 40.33901141 -22.31640625 40.30078125 C-26.63382718 39.81687818 -30.21274414 38.04914327 -34 36 C-32.67997617 32.03992852 -30.92985578 31.40355054 -27.4375 29.1875 C-25.2774747 27.80893608 -23.13326326 26.41858718 -21 25 C-20.35949707 24.58685547 -19.71899414 24.17371094 -19.05908203 23.74804688 C-13.27801373 19.77033715 -9.77952874 14.97489996 -6 9.125 C-5.41605469 8.24585938 -4.83210938 7.36671875 -4.23046875 6.4609375 C-2.80771299 4.31514193 -1.39814609 2.16187698 0 0 Z " fill="#F7D989" transform="translate(51,17)"/>
<path d="M0 0 C0.99 0.33 1.98 0.66 3 1 C2.34 2.65 1.68 4.3 1 6 C0.34 6 -0.32 6 -1 6 C-1.38091797 7.07701172 -1.38091797 7.07701172 -1.76953125 8.17578125 C-3.0936482 11.21494491 -4.6970715 13.54011278 -6.6875 16.1875 C-10.55647239 21.39328369 -14.30163615 26.67204457 -18 32 C-18.60328125 31.84660156 -19.2065625 31.69320312 -19.828125 31.53515625 C-22.20641965 30.9491376 -24.59587687 30.46746839 -27 30 C-27.144375 29.2575 -27.28875 28.515 -27.4375 27.75 C-27.90199226 25.47914894 -28.42905436 23.24539967 -29 21 C-28.52167725 20.66266846 -28.04335449 20.32533691 -27.55053711 19.9777832 C-25.34603978 18.42290365 -23.1417687 16.86770364 -20.9375 15.3125 C-20.18533203 14.78205078 -19.43316406 14.25160156 -18.65820312 13.70507812 C-17.91376953 13.17978516 -17.16933594 12.65449219 -16.40234375 12.11328125 C-15.6635498 11.59330566 -14.92475586 11.07333008 -14.16357422 10.53759766 C-12.75053517 9.53338643 -11.34545264 8.51785783 -9.94970703 7.48974609 C-5.20192901 4 -5.20192901 4 -3 4 C-2.67 3.01 -2.34 2.02 -2 1 C-1.34 0.67 -0.68 0.34 0 0 Z " fill="#F9564F" transform="translate(56,5)"/>
<path d="M0 0 C0.70084717 0.00088623 1.40169434 0.00177246 2.1237793 0.00268555 C8.73164476 0.15243241 14.87892365 1.48230256 20.01171875 5.88671875 C21.25 7.375 21.25 7.375 21.25 9.375 C18.25 10.375 18.25 10.375 15.91015625 9.4140625 C15.05292969 8.94742187 14.19570313 8.48078125 13.3125 8 C6.9492761 4.56405104 1.12755242 3.25258523 -6.05859375 4.90625 C-14.69800029 7.58694275 -21.24259156 12.29286477 -25.79296875 20.18359375 C-28.64073138 26.61445678 -29.0648201 34.27621808 -26.91796875 40.96875 C-25.94344095 43.1587001 -24.87982306 45.26197214 -23.75 47.375 C-23.07165413 49.03694738 -22.39800425 50.70098903 -21.75 52.375 C-23.07 52.375 -24.39 52.375 -25.75 52.375 C-32.43196566 44.12080712 -32.78363472 34.51754069 -31.75 24.375 C-29.79761912 15.80005441 -25.05210128 9.35624588 -17.75 4.5625 C-12.09726075 1.11197375 -6.57117146 -0.01494342 0 0 Z " fill="#5ED7F7" transform="translate(31.75,-0.375)"/>
<path d="M0 0 C3.40844088 1.37909662 4.66737535 2.60563494 6.1875 5.9375 C6.67283203 6.97197266 6.67283203 6.97197266 7.16796875 8.02734375 C10.45623972 15.82347914 10.33053093 26.61567824 7.375 34.5625 C3.26372409 43.13005399 -2.99342695 48.58209983 -11.765625 52.11328125 C-15.46547436 53.12761193 -18.94062608 53.38366285 -22.75 53.375 C-23.45084717 53.37411377 -24.15169434 53.37322754 -24.8737793 53.37231445 C-31.45010276 53.22328239 -37.80106326 51.97196118 -42.76171875 47.36328125 C-43.17035156 46.91339844 -43.57898437 46.46351562 -44 46 C-43.67 45.01 -43.34 44.02 -43 43 C-40.63622456 43.91500985 -38.32320336 44.82718514 -36.0859375 46.0234375 C-29.0904907 49.61019386 -22.17133519 50.3741441 -14.515625 48.33984375 C-6.38573394 45.10190438 -0.620417 40.11839259 3 32.125 C6.25239411 23.3017822 5.59939136 16.5868888 2 8 C1.4225 6.865625 0.845 5.73125 0.25 4.5625 C-0.1625 3.716875 -0.575 2.87125 -1 2 C-0.67 1.34 -0.34 0.68 0 0 Z " fill="#5ED7F7" transform="translate(55,11)"/>
<path d="M0 0 C0.66 0.99 1.32 1.98 2 3 C-0.1875 4.125 -0.1875 4.125 -3 5 C-4.66666667 4.33333333 -6.33333333 3.66666667 -8 3 C-14.73812529 2.16064875 -20.50619764 2.81250175 -26 7 C-30.8414562 12.19071548 -32.21553123 16.75109674 -32.17578125 23.83984375 C-31.99039911 26.11798426 -31.50160468 28.1173623 -30.875 30.3125 C-30.58625 31.529375 -30.2975 32.74625 -30 34 C-30.66 34.99 -31.32 35.98 -32 37 C-32.66 37 -33.32 37 -34 37 C-37.89901006 30.10710722 -39.17094095 23.8781729 -38 16 C-35.28131772 7.44697743 -30.33824031 2.45560772 -22.6875 -1.875 C-15.0860557 -4.1940847 -7.12502795 -3.73142627 0 0 Z " fill="#F8EDB3" transform="translate(45,10)"/>
<path d="M0 0 C3.82568509 3.44311658 5.66541643 6.43226564 6.3359375 11.578125 C6.45496778 19.71979644 4.59017446 25.74955158 -0.25 32.3125 C-6.51356233 38.43370864 -13.74010646 40.33901141 -22.31640625 40.30078125 C-26.63382718 39.81687818 -30.21274414 38.04914327 -34 36 C-33.67 35.01 -33.34 34.02 -33 33 C-31.25 32.1875 -31.25 32.1875 -29 32 C-28.278125 32.309375 -27.55625 32.61875 -26.8125 32.9375 C-21.49397092 34.9467221 -16.60962933 34.50971595 -11.25 32.8125 C-5.19504666 29.4356991 -2.09603761 25.61906615 0 19 C0.54686113 13.95007925 0.29176959 10.52764235 -2 6 C-1.47368421 1.47368421 -1.47368421 1.47368421 0 0 Z " fill="#F6EFEE" transform="translate(51,17)"/>
<path d="M0 0 C0 0.66 0 1.32 0 2 C-1.625 2.6875 -1.625 2.6875 -4 3 C-6.03273074 2.06833174 -8.03384339 1.0650015 -10 0 C-16.65738622 -2.02735218 -22.99207743 -1.82264102 -29.3125 1.125 C-35.16429495 4.39026489 -39.03614848 8.50036069 -41.4921875 14.89453125 C-43.40041501 22.80633607 -42.255806 29.80105014 -38.77734375 37.0390625 C-38.52082031 37.68617187 -38.26429687 38.33328125 -38 39 C-38.33 39.66 -38.66 40.32 -39 41 C-42 40 -42 40 -43.1328125 38.2578125 C-43.62394531 37.20207031 -43.62394531 37.20207031 -44.125 36.125 C-44.45757812 35.42632812 -44.79015625 34.72765625 -45.1328125 34.0078125 C-47.79633856 27.84090983 -48.03436189 21.00036346 -46.3515625 14.4921875 C-42.90389859 6.0350974 -37.20448453 0.1666479 -29.2109375 -4.08984375 C-19.18370525 -8.21766197 -8.7992707 -5.86618047 0 0 Z " fill="#0C6787" transform="translate(50,9)"/>
<path d="M0 0 C0.99 0.33 1.98 0.66 3 1 C3 2.98 3 4.96 3 7 C3.763125 7.144375 4.52625 7.28875 5.3125 7.4375 C8 8 8 8 11 9 C9.82095574 12.53713277 8.94385855 13.00119566 5.921875 15.03125 C5.09042969 15.59457031 4.25898438 16.15789063 3.40234375 16.73828125 C2.52707031 17.31964844 1.65179687 17.90101562 0.75 18.5 C-0.10980469 19.08136719 -0.96960938 19.66273437 -1.85546875 20.26171875 C-5.08039003 22.43319887 -8.2903781 24.58319216 -11.64355469 26.55273438 C-14.15708086 28.09647486 -15.99620167 29.84777216 -18 32 C-18.99 31.67 -19.98 31.34 -21 31 C-19.78050158 27.52911988 -18.59243253 25.54366954 -16 23 C-15.13058877 21.83833567 -14.29040449 20.65437481 -13.4765625 19.453125 C-12.78046875 18.4321875 -12.78046875 18.4321875 -12.0703125 17.390625 C-11.59335938 16.68421875 -11.11640625 15.9778125 -10.625 15.25 C-9.68032581 13.85894131 -8.73501751 12.46831302 -7.7890625 11.078125 C-7.32918945 10.40201172 -6.86931641 9.72589844 -6.39550781 9.02929688 C-4.30499379 5.98934716 -2.1554833 2.99416226 0 0 Z " fill="#068FCB" transform="translate(26,27)"/>
<path d="M0 0 C2 2 2 2 2 5 C1.34 5 0.68 5 0 5 C0.4125 6.03125 0.825 7.0625 1.25 8.125 C2 12 2 12 0.4375 15.1875 C-5.92063492 22.52380952 -5.92063492 22.52380952 -11 23 C-12.66821323 22.67449498 -14.33499557 22.34153937 -16 22 C-16.99 22.33 -17.98 22.66 -19 23 C-19.66 22.34 -20.32 21.68 -21 21 C-20.154375 20.40574219 -19.30875 19.81148437 -18.4375 19.19921875 C-10.68736529 13.59205744 -5.14396997 8.17440545 0 0 Z " fill="#FCEEB1" transform="translate(46,25)"/>
<path d="M0 0 C0 0.66 0 1.32 0 2 C2.31 1.34 4.62 0.68 7 0 C7.66 0.66 8.32 1.32 9 2 C8.154375 2.59425781 7.30875 3.18851563 6.4375 3.80078125 C-1.31263471 9.40794256 -6.85603003 14.82559455 -12 23 C-13.98131784 19.45170836 -13.91138526 17.94933613 -13 14 C-13.33 13.01 -13.66 12.02 -14 11 C-10.95476534 5.49515274 -6.70457488 0 0 0 Z " fill="#FCEFB1" transform="translate(30,16)"/>
<path d="M0 0 C0.3403125 1.175625 0.3403125 1.175625 0.6875 2.375 C1.78125 5.21875 1.78125 5.21875 4.625 6.3125 C5.800625 6.6528125 5.800625 6.6528125 7 7 C5.34832443 10.5786304 3.21713508 13.74820188 1 17 C0.443125 16.855625 -0.11375 16.71125 -0.6875 16.5625 C-3.11384195 15.97230872 -5.54906345 15.476571 -8 15 C-8.144375 14.2575 -8.28875 13.515 -8.4375 12.75 C-8.90199226 10.47914894 -9.42905436 8.24539967 -10 6 C-8.71283353 4.99421411 -7.42011342 3.99553202 -6.125 3 C-5.40570312 2.443125 -4.68640625 1.88625 -3.9453125 1.3125 C-2 0 -2 0 0 0 Z " fill="#F53230" transform="translate(37,20)"/>
<path d="M0 0 C0.99 0.99 1.98 1.98 3 3 C-5.0922593 9.15011707 -11.74590186 11.10428749 -22 10 C-26.44917493 8.62101596 -30.13812648 6.57458235 -34 4 C-34 3.34 -34 2.68 -34 2 C-31 1 -31 1 -29.08984375 1.77734375 C-28.02443359 2.35162109 -28.02443359 2.35162109 -26.9375 2.9375 C-19.38418031 6.46319866 -12.59218285 5.61207297 -4.91015625 2.8515625 C-2.7411674 1.9486643 -2.7411674 1.9486643 0 0 Z " fill="#0B5671" transform="translate(48,51)"/>
<path d="M0 0 C0.99 0.99 1.98 1.98 3 3 C2.45859375 3.87398437 2.45859375 3.87398437 1.90625 4.765625 C-1.94292117 11.56582739 -3.16224518 17.23130856 -2 25 C-1.09268436 27.79693168 -0.05033381 30.3902145 1.22265625 33.0390625 C1.47917969 33.68617187 1.73570313 34.33328125 2 35 C1.67 35.66 1.34 36.32 1 37 C-2 36 -2 36 -3.1328125 34.2578125 C-3.62394531 33.20207031 -3.62394531 33.20207031 -4.125 32.125 C-4.45757812 31.42632812 -4.79015625 30.72765625 -5.1328125 30.0078125 C-7.80280744 23.82593233 -8.14041109 16.82771644 -6.2109375 10.3515625 C-4.57078915 6.58297735 -2.71236955 3.11922498 0 0 Z " fill="#095570" transform="translate(10,13)"/>
<path d="M0 0 C0.99 0.33 1.98 0.66 3 1 C3 2.98 3 4.96 3 7 C3.763125 7.144375 4.52625 7.28875 5.3125 7.4375 C8 8 8 8 11 9 C9.89904638 12.30286086 9.3103981 12.78510901 6.5625 14.6875 C5.94503906 15.12449219 5.32757813 15.56148437 4.69140625 16.01171875 C3 17 3 17 1 17 C0.773125 16.21625 0.54625 15.4325 0.3125 14.625 C-0.78125 11.78125 -0.78125 11.78125 -3.625 10.6875 C-4.40875 10.460625 -5.1925 10.23375 -6 10 C-4.34832443 6.4213696 -2.21713508 3.25179812 0 0 Z " fill="#0A7EAD" transform="translate(26,27)"/>
<path d="M0 0 C0.99 0.33 1.98 0.66 3 1 C2.375 2.875 2.375 2.875 1 5 C-3.77690013 7.33019518 -8.78022931 7.64200388 -14 7 C-17.5625 5.5 -17.5625 5.5 -20 4 C-18.25 2.4375 -18.25 2.4375 -16 1 C-14.0625 1.375 -14.0625 1.375 -12 2 C-10.33178677 1.67449498 -8.66500443 1.34153937 -7 1 C-6.01 1.33 -5.02 1.66 -4 2 C-3.34 1.67 -2.68 1.34 -2 1 C-1.34 0.67 -0.68 0.34 0 0 Z " fill="#E9C771" transform="translate(41,45)"/>
<path d="M0 0 C0.99 0.33 1.98 0.66 3 1 C2.649375 2.216875 2.29875 3.43375 1.9375 4.6875 C1.05005315 8.17565915 1.09600388 10.48445954 2 14 C1.67 14.99 1.34 15.98 1 17 C1.33 17.99 1.66 18.98 2 20 C1.01 20.99 0.02 21.98 -1 23 C-3.86582523 17.26834953 -5.35813511 12.27195224 -3.35546875 5.97265625 C-1.49781469 1.49781469 -1.49781469 1.49781469 0 0 Z " fill="#E9C771" transform="translate(16,20)"/>
<path d="M0 0 C5.66442374 0.36504064 10.00703705 1.0554321 15 4 C15 4.99 15 5.98 15 7 C11.29527816 8.3721192 9.55072117 7.4863484 6 6 C3.67402489 5.6186926 1.34087842 5.27539746 -1 5 C-0.67 3.35 -0.34 1.7 0 0 Z " fill="#FAF0EF" transform="translate(31,7)"/>
<path d="M0 0 C1.36511719 0.43119141 1.36511719 0.43119141 2.7578125 0.87109375 C3.45648438 1.09925781 4.15515625 1.32742187 4.875 1.5625 C5.205 3.2125 5.535 4.8625 5.875 6.5625 C0.46109132 6.09578373 -3.33017932 5.31952189 -8.125 2.5625 C-7.795 1.5725 -7.465 0.5825 -7.125 -0.4375 C-4.30685434 -1.84657283 -2.95222796 -0.94622691 0 0 Z " fill="#F4ECB4" transform="translate(25.125,50.4375)"/>
<path d="M0 0 C2.625 0.375 2.625 0.375 5 1 C5.625 3.375 5.625 3.375 6 6 C5.34 6.66 4.68 7.32 4 8 C1.375 7.625 1.375 7.625 -1 7 C-1.625 4.625 -1.625 4.625 -2 2 C-1.34 1.34 -0.68 0.68 0 0 Z " fill="#E6D663" transform="translate(30,28)"/>
</svg>
